<?xml version="1.0" encoding="UTF-8" standalone="no"?><svg xmlns="http://www.w3.org/2000/svg" xmlns:xlink="http://www.w3.org/1999/xlink" contentStyleType="text/css" height="252px" preserveAspectRatio="none" style="width:197px;height:252px;background:#FFFFFF;" version="1.1" viewBox="0 0 197 252" width="197px" zoomAndPan="magnify"><defs/><g><!--MD5=[e59cf999063292dce8d6ea34dd10a338]
class user--><g id="elem_user"><rect codeLine="2" fill="#F1F1F1" height="80.9766" id="user" rx="2.5" ry="2.5" style="stroke:#181818;stroke-width:0.5;" width="162" x="17.5" y="7"/><ellipse cx="79.25" cy="23" fill="#ADD1B2" rx="11" ry="11" style="stroke:#181818;stroke-width:1.0;"/><path d="M82.8643,29.5 L75.1445,29.5 L75.1445,17.1069 L82.8643,17.1069 L82.8643,19.2651 L77.5933,19.2651 L77.5933,21.938 L82.3662,21.938 L82.3662,24.0962 L77.5933,24.0962 L77.5933,27.3418 L82.8643,27.3418 Z " fill="#000000"/><text fill="#000000" font-family="sans-serif" font-size="14" lengthAdjust="spacing" textLength="30" x="99.75" y="28.291">user</text><line style="stroke:#181818;stroke-width:0.5;" x1="18.5" x2="178.5" y1="39" y2="39"/><ellipse cx="28.5" cy="52.7441" fill="#84BE84" rx="3" ry="3" style="stroke:#038048;stroke-width:1.0;"/><text fill="#000000" font-family="sans-serif" font-size="14" lengthAdjust="spacing" textLength="72" x="37.5" y="56.5352">id: INT(11)</text><line style="stroke:#181818;stroke-width:1.0;" x1="18.5" x2="178.5" y1="63.4883" y2="63.4883"/><text fill="#000000" font-family="sans-serif" font-size="14" lengthAdjust="spacing" textLength="150" x="23.5" y="81.0234">name: VARCHAR(255)</text></g><!--MD5=[7995dc4b925f04a8b903038d633a4635]
class task--><g id="elem_task"><rect codeLine="8" fill="#F1F1F1" height="97.4648" id="task" rx="2.5" ry="2.5" style="stroke:#181818;stroke-width:0.5;" width="183" x="7" y="148"/><ellipse cx="80.25" cy="164" fill="#ADD1B2" rx="11" ry="11" style="stroke:#181818;stroke-width:1.0;"/><path d="M83.8643,170.5 L76.1445,170.5 L76.1445,158.1069 L83.8643,158.1069 L83.8643,160.2651 L78.5933,160.2651 L78.5933,162.938 L83.3662,162.938 L83.3662,165.0962 L78.5933,165.0962 L78.5933,168.3418 L83.8643,168.3418 Z " fill="#000000"/><text fill="#000000" font-family="sans-serif" font-size="14" lengthAdjust="spacing" textLength="28" x="100.75" y="169.291">task</text><line style="stroke:#181818;stroke-width:0.5;" x1="8" x2="189" y1="180" y2="180"/><ellipse cx="18" cy="193.7441" fill="#84BE84" rx="3" ry="3" style="stroke:#038048;stroke-width:1.0;"/><text fill="#000000" font-family="sans-serif" font-size="14" lengthAdjust="spacing" textLength="72" x="27" y="197.5352">id: INT(11)</text><line style="stroke:#181818;stroke-width:1.0;" x1="8" x2="189" y1="204.4883" y2="204.4883"/><text fill="#000000" font-family="sans-serif" font-size="14" lengthAdjust="spacing" textLength="150" x="13" y="222.0234">name: VARCHAR(255)</text><text fill="#000000" font-family="sans-serif" font-size="14" lengthAdjust="spacing" textLength="171" x="13" y="238.5117">authorId: VARCHAR(255)</text></g><!--MD5=[7e19e99c62e66b6cc2ebec7a1f780b29]
link user to task--><g id="link_user_task"><path codeLine="15" d="M98.5,96.68 C98.5,110.41 98.5,125.49 98.5,139.64 " fill="none" id="user-task" style="stroke:#181818;stroke-width:1.0;"/><line style="stroke:#181818;stroke-width:1.0;" x1="98.5" x2="104.5" y1="139.84" y2="147.84"/><line style="stroke:#181818;stroke-width:1.0;" x1="98.5" x2="92.5" y1="139.84" y2="147.84"/><line style="stroke:#181818;stroke-width:1.0;" x1="98.5" x2="98.5" y1="139.84" y2="147.84"/><ellipse cx="98.5" cy="133.84" fill="none" rx="4" ry="4" style="stroke:#181818;stroke-width:1.0;"/><line style="stroke:#181818;stroke-width:1.0;" x1="94.5" x2="102.5" y1="92.28" y2="92.28"/><line style="stroke:#181818;stroke-width:1.0;" x1="94.5" x2="102.5" y1="95.28" y2="95.28"/><line style="stroke:#181818;stroke-width:1.0;" x1="98.5" x2="98.5" y1="96.28" y2="88.28"/></g><!--MD5=[1faef3ef95cf4576647d0c7f1c701137]
@startuml er

entity "user" {
  +id: INT(11)
  - -
  name: VARCHAR(255)
}

entity "task" {
  +id: INT(11)
  - -
  name: VARCHAR(255)
  authorId: VARCHAR(255)
}

user ||- -o{ task

@enduml

PlantUML version 1.2022.7(Tue Aug 23 02:01:30 JST 2022)
(GPL source distribution)
Java Runtime: OpenJDK Runtime Environment
JVM: OpenJDK 64-Bit Server VM
Default Encoding: UTF-8
Language: ja
Country: JP
--></g></svg>